<svg width="176" height="23" viewBox="0 0 176 23" fill="none" xmlns="http://www.w3.org/2000/svg">
<path d="M22.9831 11.5003C22.9831 17.8463 17.8376 23 11.4916 23C5.14547 23 0 17.8545 0 11.5003C0 11.3288 0 11.1572 0.00816741 10.9857L4.83511 15.8127C6.83613 17.8137 10.0786 17.8137 12.0796 15.8127L21.6927 6.19962C22.5176 7.78409 22.9913 9.59725 22.9913 11.5084" fill="black"/>
<path d="M18.9976 2.79325L9.54794 12.243C8.94355 12.8473 7.96346 12.8473 7.35907 12.243L1.29885 6.18273C3.21819 2.5074 7.06505 0 11.4918 0C14.3585 0 16.9803 1.0536 18.9976 2.78509" fill="black"/>
<path d="M37.0069 17.9595H46.2769V22.0677H31.3632V18.2045L40.4862 5.12846H31.4857V1.05292H46.2197V4.91611L37.0069 17.9595Z" fill="black"/>
<path d="M63.8857 2.11556C65.5028 3.03847 66.7688 4.31259 67.708 5.94607C68.6391 7.57955 69.1047 9.42539 69.1047 11.4917C69.1047 13.5581 68.631 15.4039 67.6917 17.0456C66.7524 18.6872 65.4702 19.9695 63.8612 20.8924C62.244 21.8154 60.4554 22.2727 58.4952 22.2727C56.535 22.2727 54.7463 21.8154 53.1292 20.8924C51.512 19.9695 50.2379 18.6872 49.2987 17.0456C48.3594 15.4039 47.8857 13.5499 47.8857 11.4917C47.8857 9.43356 48.3594 7.58772 49.2987 5.94607C50.2379 4.31259 51.512 3.03031 53.1292 2.11556C54.7463 1.19264 56.535 0.73526 58.4952 0.73526C60.4554 0.73526 62.2767 1.19264 63.8857 2.11556ZM54.5258 7.08134C53.5457 8.15944 53.0557 9.62957 53.0557 11.4917C53.0557 13.3539 53.5457 14.7995 54.5258 15.8858C55.5059 16.9721 56.829 17.5193 58.4952 17.5193C60.1613 17.5193 61.46 16.9721 62.4482 15.8858C63.4365 14.7995 63.9347 13.3294 63.9347 11.4917C63.9347 9.65408 63.4446 8.18394 62.4646 7.09768C61.4845 6.01141 60.1613 5.46419 58.4952 5.46419C56.829 5.46419 55.5059 6.00324 54.5258 7.08134Z" fill="black"/>
<path d="M86.4354 2.11556C88.0525 3.03847 89.3185 4.31259 90.2496 5.94607C91.1807 7.57955 91.6462 9.42539 91.6462 11.4917C91.6462 13.5581 91.1725 15.4039 90.2332 17.0456C89.294 18.6872 88.0117 19.9695 86.4027 20.8924C84.7856 21.8154 82.9969 22.2727 81.0367 22.2727C79.0766 22.2727 77.2879 21.8154 75.6707 20.8924C74.0536 19.9695 72.7795 18.6872 71.8402 17.0456C70.901 15.4039 70.4273 13.5499 70.4273 11.4917C70.4273 9.43356 70.901 7.58772 71.8402 5.94607C72.7795 4.31259 74.0536 3.03031 75.6707 2.11556C77.2879 1.19264 79.0766 0.73526 81.0367 0.73526C82.9969 0.73526 84.8182 1.19264 86.4272 2.11556H86.4354ZM77.0674 7.08134C76.0873 8.15944 75.5972 9.62957 75.5972 11.4917C75.5972 13.3539 76.0873 14.7995 77.0674 15.8858C78.0475 16.9721 79.3706 17.5193 81.0367 17.5193C82.7029 17.5193 83.9933 16.9721 84.9898 15.8858C85.978 14.7995 86.4762 13.3294 86.4762 11.4917C86.4762 9.65408 85.9862 8.18394 85.0061 7.09768C84.026 6.01141 82.7029 5.46419 81.0367 5.46419C79.3706 5.46419 78.0475 6.00324 77.0674 7.08134Z" fill="black"/>
<path d="M98.6868 14.6925V22.0595H93.6067V1.05292H101.839C104.339 1.05292 106.242 1.67364 107.548 2.90692C108.855 4.14837 109.509 5.81452 109.509 7.91355C109.509 9.22033 109.215 10.3883 108.635 11.401C108.047 12.422 107.181 13.2224 106.037 13.8104C104.886 14.3985 103.489 14.6843 101.848 14.6843H98.695L98.6868 14.6925ZM104.331 7.92172C104.331 6.07588 103.31 5.16113 101.268 5.16113H98.6868V10.6251H101.268C103.31 10.6251 104.331 9.72671 104.331 7.92172Z" fill="black"/>
<path d="M111.11 21.7088C110.726 21.325 110.187 20.6144 110.187 19.5445C110.187 18.4745 110.718 17.764 111.11 17.3801C111.82 16.6695 112.621 16.4572 113.274 16.4572C114.017 16.4572 114.818 16.7512 115.471 17.4046C115.978 17.911 116.329 18.5644 116.329 19.5445C116.329 20.5246 115.969 21.1779 115.439 21.7088C114.818 22.3295 114.042 22.6317 113.266 22.6317C112.613 22.6317 111.812 22.4276 111.102 21.7088" fill="black"/>
<path d="M134.002 2.11556C135.619 3.03847 136.893 4.31259 137.816 5.94607C138.747 7.57955 139.213 9.42539 139.213 11.4917C139.213 13.5581 138.747 15.4039 137.8 17.0456C136.861 18.6872 135.578 19.9695 133.969 20.8924C132.352 21.8154 130.564 22.2727 128.604 22.2727C126.643 22.2727 124.855 21.8154 123.238 20.8924C121.62 19.9695 120.346 18.6872 119.407 17.0456C118.468 15.4039 117.994 13.5499 117.994 11.4917C117.994 9.43356 118.46 7.58772 119.407 5.94607C120.346 4.31259 121.62 3.03031 123.238 2.11556C124.855 1.19264 126.643 0.73526 128.604 0.73526C130.564 0.73526 132.385 1.19264 133.994 2.11556H134.002ZM124.634 7.08134C123.654 8.15944 123.164 9.62957 123.164 11.4917C123.164 13.3539 123.654 14.7995 124.634 15.8858C125.614 16.9721 126.937 17.5193 128.604 17.5193C130.27 17.5193 131.56 16.9721 132.557 15.8858C133.545 14.7995 134.043 13.3294 134.043 11.4917C134.043 9.65408 133.553 8.18394 132.573 7.09768C131.593 6.01141 130.27 5.46419 128.604 5.46419C126.937 5.46419 125.614 6.00324 124.634 7.08134Z" fill="black"/>
<path d="M159.837 22.0595H154.757L146.263 9.16316V22.0595H141.182V1.05292H146.263L154.757 14.0718V1.05292H159.837V22.0595Z" fill="black"/>
<path d="M167.53 5.09579V9.49803H174.635V13.3285H167.53V17.9921H175.525V22.0595H162.449V1.05292H175.525V5.09579H167.53Z" fill="black"/>
</svg>
