<svg width="101" height="14" viewBox="0 0 101 14" fill="none" xmlns="http://www.w3.org/2000/svg">
<path d="M13.1416 7.07581C13.1416 10.7045 10.1995 13.6513 6.57082 13.6513C2.94216 13.6513 0 10.7091 0 7.07581C0 6.97774 0 6.87967 0.00467009 6.7816L2.7647 9.54162C3.90887 10.6858 5.7629 10.6858 6.90707 9.54162L12.4038 4.04492C12.8755 4.95092 13.1463 5.98768 13.1463 7.08048" fill="white"/>
<path d="M10.8628 2.09717L5.45947 7.50047C5.11388 7.84606 4.55347 7.84606 4.20789 7.50047L0.742676 4.03526C1.84015 1.93372 4.03976 0.5 6.57095 0.5C8.21016 0.5 9.70926 1.10244 10.8628 2.0925" fill="white"/>
<path d="M21.1604 10.7691H26.4609V13.1182H17.9333V10.9093L23.1498 3.43243H18.0034V1.10205H26.4283V3.31101L21.1604 10.7691Z" fill="white"/>
<path d="M36.5296 1.70966C37.4543 2.23738 38.1781 2.96591 38.7152 3.89993C39.2476 4.83395 39.5138 5.88939 39.5138 7.07092C39.5138 8.25246 39.2429 9.3079 38.7058 10.2466C38.1688 11.1853 37.4356 11.9185 36.5156 12.4462C35.5909 12.9739 34.5681 13.2355 33.4473 13.2355C32.3265 13.2355 31.3037 12.9739 30.3791 12.4462C29.4544 11.9185 28.7258 11.1853 28.1888 10.2466C27.6517 9.3079 27.3809 8.24779 27.3809 7.07092C27.3809 5.89406 27.6517 4.83862 28.1888 3.89993C28.7258 2.96591 29.4544 2.23271 30.3791 1.70966C31.3037 1.18194 32.3265 0.92041 33.4473 0.92041C34.5681 0.92041 35.6096 1.18194 36.5296 1.70966V1.70966ZM31.1776 4.54907C30.6172 5.16552 30.337 6.00614 30.337 7.07092C30.337 8.13571 30.6172 8.96231 31.1776 9.58343C31.7381 10.2046 32.4946 10.5175 33.4473 10.5175C34.4 10.5175 35.1426 10.2046 35.7076 9.58343C36.2727 8.96231 36.5576 8.1217 36.5576 7.07092C36.5576 6.02015 36.2774 5.17954 35.717 4.55841C35.1566 3.93729 34.4 3.6244 33.4473 3.6244C32.4946 3.6244 31.7381 3.93262 31.1776 4.54907" fill="white"/>
<path d="M49.4234 1.70966C50.3481 2.23738 51.0719 2.96591 51.6043 3.89993C52.1367 4.83395 52.4029 5.88939 52.4029 7.07092C52.4029 8.25246 52.1321 9.3079 51.595 10.2466C51.0579 11.1853 50.3247 11.9185 49.4047 12.4462C48.48 12.9739 47.4573 13.2355 46.3365 13.2355C45.2157 13.2355 44.1929 12.9739 43.2682 12.4462C42.3435 11.9185 41.615 11.1853 41.0779 10.2466C40.5409 9.3079 40.27 8.24779 40.27 7.07092C40.27 5.89406 40.5409 4.83862 41.0779 3.89993C41.615 2.96591 42.3435 2.23271 43.2682 1.70966C44.1929 1.18194 45.2157 0.92041 46.3365 0.92041C47.4573 0.92041 48.4987 1.18194 49.4187 1.70966H49.4234ZM44.0668 4.54907C43.5064 5.16552 43.2262 6.00614 43.2262 7.07092C43.2262 8.13571 43.5064 8.96231 44.0668 9.58343C44.6272 10.2046 45.3838 10.5175 46.3365 10.5175C47.2892 10.5175 48.027 10.2046 48.5968 9.58343C49.1619 8.96231 49.4468 8.1217 49.4468 7.07092C49.4468 6.02015 49.1665 5.17954 48.6061 4.55841C48.0457 3.93729 47.2892 3.6244 46.3365 3.6244C45.3838 3.6244 44.6272 3.93262 44.0668 4.54907" fill="white"/>
<path d="M56.4287 8.90111V13.1135H53.5239V1.10205H58.2314C59.6604 1.10205 60.7486 1.45698 61.4958 2.16216C62.243 2.87202 62.6166 3.82472 62.6166 5.02493C62.6166 5.77215 62.4485 6.43997 62.1169 7.01906C61.7807 7.60282 61.2856 8.06049 60.6318 8.39674C59.9733 8.73299 59.1747 8.89644 58.236 8.89644H56.4334L56.4287 8.90111ZM59.6558 5.0296C59.6558 3.97416 59.072 3.45111 57.9045 3.45111H56.4287V6.5754H57.9045C59.072 6.5754 59.6558 6.06169 59.6558 5.0296Z" fill="white"/>
<path d="M63.5321 12.913C63.3126 12.6935 63.0044 12.2872 63.0044 11.6755C63.0044 11.0637 63.308 10.6574 63.5321 10.4379C63.9384 10.0316 64.3961 9.91016 64.7697 9.91016C65.1947 9.91016 65.6523 10.0783 66.0259 10.4519C66.3155 10.7414 66.5163 11.115 66.5163 11.6755C66.5163 12.2359 66.3108 12.6095 66.0073 12.913C65.6523 13.268 65.2087 13.4407 64.765 13.4407C64.3914 13.4407 63.9337 13.324 63.5274 12.913" fill="white"/>
<path d="M76.6219 1.70966C77.5466 2.23738 78.2751 2.96591 78.8028 3.89993C79.3352 4.83395 79.6014 5.88939 79.6014 7.07092C79.6014 8.25246 79.3352 9.3079 78.7935 10.2466C78.2564 11.1853 77.5232 11.9185 76.6032 12.4462C75.6785 12.9739 74.6558 13.2355 73.535 13.2355C72.4141 13.2355 71.3914 12.9739 70.4667 12.4462C69.542 11.9185 68.8135 11.1853 68.2764 10.2466C67.7394 9.3079 67.4685 8.24779 67.4685 7.07092C67.4685 5.89406 67.7347 4.83862 68.2764 3.89993C68.8135 2.96591 69.542 2.23271 70.4667 1.70966C71.3914 1.18194 72.4141 0.92041 73.535 0.92041C74.6558 0.92041 75.6972 1.18194 76.6172 1.70966H76.6219ZM71.2653 4.54907C70.7049 5.16552 70.4247 6.00614 70.4247 7.07092C70.4247 8.13571 70.7049 8.96231 71.2653 9.58343C71.8257 10.2046 72.5823 10.5175 73.535 10.5175C74.4877 10.5175 75.2255 10.2046 75.7953 9.58343C76.3604 8.96231 76.6452 8.1217 76.6452 7.07092C76.6452 6.02015 76.365 5.17954 75.8046 4.55841C75.2442 3.93729 74.4877 3.6244 73.535 3.6244C72.5823 3.6244 71.8257 3.93262 71.2653 4.54907" fill="white"/>
<path d="M91.394 13.1135H88.4892L83.6323 5.73945V13.1135H80.7275V1.10205H83.6323L88.4892 8.54618V1.10205H91.394V13.1135Z" fill="white"/>
<path d="M95.7927 3.41375V5.93093H99.8557V8.1212H95.7927V10.7878H100.365V13.1135H92.8879V1.10205H100.365V3.41375H95.7927Z" fill="white"/>
</svg>
